<svg xmlns="http://www.w3.org/2000/svg" width="305.023" height="140.865" viewBox="0 0 305.023 140.865">
  <g id="Group_878" data-name="Group 878" transform="translate(2298.123 1291.657)">
    <g id="Group_14" data-name="Group 14" transform="translate(-2298.123 -1291.657)">
      <g id="Group_6" data-name="Group 6" transform="translate(0 54.131)">
        <path id="Path_7" data-name="Path 7" d="M-2191.953-1210.866q0,4.085-4.038,4.085h-3.447q-4.033,0-4.033-4.085v-40.811l-33.916,41.843a8.8,8.8,0,0,1-3.225,2.485,9.66,9.66,0,0,1-4.055.866,10.132,10.132,0,0,1-4.061-.841,8.732,8.732,0,0,1-3.318-2.513l-34.561-42.019v40.992q0,4.081-4.083,4.083h-3.4q-4.036,0-4.035-4.088v-53a5.413,5.413,0,0,1,1.992-4.209,7.033,7.033,0,0,1,4.8-1.751,7.764,7.764,0,0,1,3.324.776,8.9,8.9,0,0,1,3.026,2.423l40.409,47.8,39.477-47.9a7.448,7.448,0,0,1,2.929-2.116,9.762,9.762,0,0,1,3.862-.789,6.581,6.581,0,0,1,4.43,1.431,6.021,6.021,0,0,1,1.922,4.871Z" transform="translate(2298.123 1269.833)" fill="#fff"/>
        <path id="Path_8" data-name="Path 8" d="M-2118.4-1210.866q0,4.085-4.038,4.085h-3.445q-4.038,0-4.036-4.085v-40.811l-33.916,41.843a8.8,8.8,0,0,1-3.222,2.485,9.657,9.657,0,0,1-4.055.866,10.118,10.118,0,0,1-4.06-.841,8.72,8.72,0,0,1-3.319-2.513l-34.56-42.019v40.992q0,4.081-4.085,4.083h-3.4q-4.037,0-4.036-4.088v-53a5.405,5.405,0,0,1,1.992-4.209,7.031,7.031,0,0,1,4.8-1.751,7.75,7.75,0,0,1,3.321.776,8.882,8.882,0,0,1,3.029,2.423l40.41,47.8,39.474-47.9a7.486,7.486,0,0,1,2.93-2.116,9.782,9.782,0,0,1,3.864-.789,6.581,6.581,0,0,1,4.43,1.431,6.021,6.021,0,0,1,1.92,4.871Z" transform="translate(2407.016 1269.833)" fill="#fff"/>
      </g>
      <g id="Group_9" data-name="Group 9" transform="translate(110.704)">
        <g id="Group_7" data-name="Group 7" transform="translate(6.776 48.793)" opacity="0.15">
          <path id="Path_9" data-name="Path 9" d="M-2228.562-1199.389h-22.2l16.489-59.017a18.579,18.579,0,0,1,17.9-13.58h22.2l-16.489,59.014A18.582,18.582,0,0,1-2228.562-1199.389Z" transform="translate(2250.758 1271.985)" fill="#fff"/>
        </g>
        <g id="Group_8" data-name="Group 8" transform="translate(66.485 13.917)" opacity="0.15">
          <path id="Path_10" data-name="Path 10" d="M-2201.4-1251.17h-25.29l7.454-24.347A14.886,14.886,0,0,1-2205-1286.046h25.289l-7.453,24.347A14.881,14.881,0,0,1-2201.4-1251.17Z" transform="translate(2226.685 1286.046)" fill="#fff"/>
        </g>
        <path id="Path_11" data-name="Path 11" d="M-2231.294-1199.389h-22.2l16.489-59.017a18.579,18.579,0,0,1,17.9-13.58h22.2l-16.489,59.014A18.581,18.581,0,0,1-2231.294-1199.389Z" transform="translate(2253.49 1320.778)" fill="#fff"/>
        <path id="Path_12" data-name="Path 12" d="M-2229.823-1199.389h-22.2l16.489-59.017a18.579,18.579,0,0,1,17.9-13.58h22.2l-16.489,59.014A18.581,18.581,0,0,1-2229.823-1199.389Z" transform="translate(2255.667 1320.778)" fill="#fff"/>
        <path id="Path_13" data-name="Path 13" d="M-2202.657-1251.17h-25.29l7.454-24.347a14.887,14.887,0,0,1,14.232-10.529h25.289l-7.453,24.347A14.883,14.883,0,0,1-2202.657-1251.17Z" transform="translate(2291.304 1299.963)" fill="#fff"/>
        <path id="Path_14" data-name="Path 14" d="M-2203.918-1251.17h-25.29l7.454-24.347a14.886,14.886,0,0,1,14.231-10.529h25.29l-7.453,24.347A14.881,14.881,0,0,1-2203.918-1251.17Z" transform="translate(2289.437 1299.963)" fill="#fff"/>
        <path id="Path_15" data-name="Path 15" d="M-2227.805-1256.784h0a17.353,17.353,0,0,1-16.593-22.434l.049-.166a17.355,17.355,0,0,1,16.6-12.273h0a17.353,17.353,0,0,1,16.593,22.432l-.052.166A17.352,17.352,0,0,1-2227.805-1256.784Z" transform="translate(2265.806 1291.657)" fill="#fff"/>
      </g>
      <g id="Group_10" data-name="Group 10" transform="translate(221.845 32.817)">
        <path id="Path_16" data-name="Path 16" d="M-2200.037-1275.9a3.943,3.943,0,0,0-1.463-1.007,5.327,5.327,0,0,0-2.088-.387,3.916,3.916,0,0,0-2.51.653,2.173,2.173,0,0,0-.787,1.769,1.944,1.944,0,0,0,.21.957,1.828,1.828,0,0,0,.647.652,4.562,4.562,0,0,0,1.129.476q.685.2,1.622.4a18.158,18.158,0,0,1,1.877.5,5.329,5.329,0,0,1,1.417.687,2.818,2.818,0,0,1,.9,1,3.083,3.083,0,0,1,.313,1.466,3.308,3.308,0,0,1-.347,1.555,3.133,3.133,0,0,1-.973,1.1,4.286,4.286,0,0,1-1.48.65,7.89,7.89,0,0,1-1.888.211,7.741,7.741,0,0,1-5.221-1.888l.642-1.044a4.958,4.958,0,0,0,.834.7,6.151,6.151,0,0,0,1.079.578,6.927,6.927,0,0,0,1.272.385,7.176,7.176,0,0,0,1.429.137,4.491,4.491,0,0,0,2.431-.558,1.881,1.881,0,0,0,.866-1.691,1.94,1.94,0,0,0-.248-1.019,2.149,2.149,0,0,0-.739-.715,5.273,5.273,0,0,0-1.228-.521c-.489-.146-1.057-.3-1.7-.441q-1.028-.238-1.8-.494a4.746,4.746,0,0,1-1.3-.642,2.519,2.519,0,0,1-.8-.925,3,3,0,0,1-.265-1.324,3.659,3.659,0,0,1,.34-1.6,3.153,3.153,0,0,1,.962-1.173,4.551,4.551,0,0,1,1.463-.715,6.667,6.667,0,0,1,1.868-.248,6.371,6.371,0,0,1,2.319.395,6.205,6.205,0,0,1,1.837,1.109Z" transform="translate(2208.681 1278.426)" fill="#fff"/>
        <path id="Path_17" data-name="Path 17" d="M-2195.367-1265.236a5.49,5.49,0,0,1-2.483-.561,6.105,6.105,0,0,1-1.929-1.483,6.719,6.719,0,0,1-1.246-2.114,6.947,6.947,0,0,1-.441-2.438,6.722,6.722,0,0,1,.469-2.49,6.823,6.823,0,0,1,1.292-2.106,6.2,6.2,0,0,1,1.939-1.458,5.488,5.488,0,0,1,2.419-.541,5.355,5.355,0,0,1,2.48.578,6.236,6.236,0,0,1,1.925,1.513,6.968,6.968,0,0,1,1.235,2.116,6.785,6.785,0,0,1,.441,2.406,6.744,6.744,0,0,1-.469,2.493,6.79,6.79,0,0,1-1.282,2.1,6.184,6.184,0,0,1-1.932,1.448A5.493,5.493,0,0,1-2195.367-1265.236Zm-4.817-6.595a6.048,6.048,0,0,0,.35,2.044,5.445,5.445,0,0,0,.988,1.739,4.821,4.821,0,0,0,1.52,1.208,4.236,4.236,0,0,0,1.959.449,4.189,4.189,0,0,0,2-.476,4.891,4.891,0,0,0,1.52-1.245,5.748,5.748,0,0,0,.962-1.739,5.974,5.974,0,0,0,.337-1.979,5.933,5.933,0,0,0-.357-2.044,5.626,5.626,0,0,0-1-1.729,4.938,4.938,0,0,0-1.523-1.2,4.2,4.2,0,0,0-1.939-.449,4.248,4.248,0,0,0-2,.469,4.755,4.755,0,0,0-1.521,1.235,5.756,5.756,0,0,0-.96,1.739A5.975,5.975,0,0,0-2200.184-1271.831Z" transform="translate(2219.362 1278.426)" fill="#fff"/>
        <path id="Path_18" data-name="Path 18" d="M-2192.916-1265.382v-13.007h8.535v1.136h-7.254v4.782h6.119v1.062h-6.119v6.027Z" transform="translate(2232.02 1278.481)" fill="#fff"/>
        <path id="Path_19" data-name="Path 19" d="M-2175.889-1277.253h-4.633v11.871h-1.283v-11.871h-4.633v-1.136h10.549Z" transform="translate(2241.608 1278.481)" fill="#fff"/>
      </g>
      <g id="Group_11" data-name="Group 11" transform="translate(56.12 128.255)">
        <path id="Path_20" data-name="Path 20" d="M-2267.878-1239.022h-3.346v8.572h-.925v-8.572h-3.349v-.818h7.62Z" transform="translate(2275.497 1240.108)" fill="#fff"/>
        <path id="Path_21" data-name="Path 21" d="M-2263.9-1230.29h-.9v-3.847a3.115,3.115,0,0,0-.4-1.761,1.358,1.358,0,0,0-1.186-.583,2.006,2.006,0,0,0-.759.154,2.774,2.774,0,0,0-.709.414,2.928,2.928,0,0,0-.576.623,2.631,2.631,0,0,0-.362.779v4.221h-.9v-9.658h.9v4.326a3.1,3.1,0,0,1,1.136-1.228,2.949,2.949,0,0,1,1.575-.451,2.08,2.08,0,0,1,1,.221,1.891,1.891,0,0,1,.677.608,2.682,2.682,0,0,1,.382.94,5.7,5.7,0,0,1,.12,1.21Z" transform="translate(2284.087 1239.948)" fill="#fff"/>
        <path id="Path_22" data-name="Path 22" d="M-2261.084-1231.738a3.328,3.328,0,0,1-1.381-.283,3.414,3.414,0,0,1-1.094-.779,3.652,3.652,0,0,1-.719-1.146,3.733,3.733,0,0,1-.258-1.389,3.638,3.638,0,0,1,.258-1.369,3.5,3.5,0,0,1,.714-1.124,3.347,3.347,0,0,1,1.089-.766,3.285,3.285,0,0,1,1.379-.288,3.236,3.236,0,0,1,1.379.288,3.231,3.231,0,0,1,1.079.771,3.528,3.528,0,0,1,.7,1.124,3.629,3.629,0,0,1,.251,1.352v.211a.5.5,0,0,1-.013.146h-5.9a2.861,2.861,0,0,0,.26,1.022,2.767,2.767,0,0,0,.561.816,2.606,2.606,0,0,0,.786.536,2.378,2.378,0,0,0,.948.191,2.469,2.469,0,0,0,.662-.092,2.537,2.537,0,0,0,.608-.253,2.309,2.309,0,0,0,.5-.387,1.715,1.715,0,0,0,.343-.511l.781.211a2.31,2.31,0,0,1-.452.7,3.2,3.2,0,0,1-.672.541,3.285,3.285,0,0,1-.848.357A3.647,3.647,0,0,1-2261.084-1231.738Zm2.54-3.939a2.78,2.78,0,0,0-.258-1.015,2.688,2.688,0,0,0-.558-.786,2.312,2.312,0,0,0-.779-.516,2.412,2.412,0,0,0-.945-.186,2.469,2.469,0,0,0-.955.186,2.356,2.356,0,0,0-.784.516,2.521,2.521,0,0,0-.543.791,3,3,0,0,0-.246,1.009Z" transform="translate(2291.723 1241.528)" fill="#fff"/>
        <path id="Path_23" data-name="Path 23" d="M-2255.549-1235.178a5.008,5.008,0,0,1,.3-1.684,4.673,4.673,0,0,1,.865-1.5,4.486,4.486,0,0,1,1.4-1.079,4.158,4.158,0,0,1,1.89-.419,3.912,3.912,0,0,1,2.15.573,3.455,3.455,0,0,1,1.317,1.48l-.727.449a2.818,2.818,0,0,0-.55-.779,3.013,3.013,0,0,0-.695-.516,2.871,2.871,0,0,0-.767-.288,3.866,3.866,0,0,0-.781-.084,3.108,3.108,0,0,0-1.493.345,3.415,3.415,0,0,0-1.094.9,4.03,4.03,0,0,0-.669,1.253,4.551,4.551,0,0,0-.224,1.406,4.143,4.143,0,0,0,.273,1.5,4.252,4.252,0,0,0,.739,1.26,3.627,3.627,0,0,0,1.111.875,3.056,3.056,0,0,0,1.4.323,3.58,3.58,0,0,0,.814-.1,3.272,3.272,0,0,0,.808-.317,3.435,3.435,0,0,0,.722-.546,2.955,2.955,0,0,0,.556-.786l.766.4a2.957,2.957,0,0,1-.635.935,4.25,4.25,0,0,1-.916.68,4.491,4.491,0,0,1-1.064.421,4.3,4.3,0,0,1-1.1.146,3.713,3.713,0,0,1-1.773-.424,4.716,4.716,0,0,1-1.392-1.1,5.18,5.18,0,0,1-.9-1.55A4.937,4.937,0,0,1-2255.549-1235.178Z" transform="translate(2305.027 1240.074)" fill="#fff"/>
        <path id="Path_24" data-name="Path 24" d="M-2249.458-1239.948h.9v8.1a.843.843,0,0,0,.211.6.787.787,0,0,0,.6.216,1.679,1.679,0,0,0,.342-.04,2.278,2.278,0,0,0,.375-.1l.159.727a2.823,2.823,0,0,1-.618.171,3.318,3.318,0,0,1-.627.067,1.331,1.331,0,0,1-.979-.35,1.318,1.318,0,0,1-.357-.985Z" transform="translate(2314.043 1239.948)" fill="#fff"/>
        <path id="Path_25" data-name="Path 25" d="M-2242.523-1231.738a3.311,3.311,0,0,1-1.381-.283,3.4,3.4,0,0,1-1.092-.779,3.626,3.626,0,0,1-.722-1.146,3.7,3.7,0,0,1-.258-1.389,3.61,3.61,0,0,1,.258-1.369,3.507,3.507,0,0,1,.715-1.124,3.3,3.3,0,0,1,1.091-.766,3.262,3.262,0,0,1,1.374-.288,3.259,3.259,0,0,1,1.384.288,3.251,3.251,0,0,1,1.079.771,3.629,3.629,0,0,1,.7,1.124,3.69,3.69,0,0,1,.253,1.352v.211a.594.594,0,0,1-.015.146h-5.9a2.868,2.868,0,0,0,.255,1.022,2.82,2.82,0,0,0,.563.816,2.518,2.518,0,0,0,.789.536,2.377,2.377,0,0,0,.945.191,2.415,2.415,0,0,0,.66-.092,2.464,2.464,0,0,0,.608-.253,2.277,2.277,0,0,0,.506-.387,1.722,1.722,0,0,0,.345-.511l.779.211a2.331,2.331,0,0,1-.449.7,3.2,3.2,0,0,1-.674.541,3.292,3.292,0,0,1-.849.357A3.63,3.63,0,0,1-2242.523-1231.738Zm2.54-3.939a2.771,2.771,0,0,0-.258-1.015,2.814,2.814,0,0,0-.555-.786,2.391,2.391,0,0,0-.781-.516,2.4,2.4,0,0,0-.945-.186,2.465,2.465,0,0,0-.952.186,2.392,2.392,0,0,0-.789.516,2.554,2.554,0,0,0-.543.791,3.1,3.1,0,0,0-.244,1.009Z" transform="translate(2319.199 1241.528)" fill="#fff"/>
        <path id="Path_26" data-name="Path 26" d="M-2237.98-1231.94l-2.8-6.893h.924l2.369,6.059,2.381-6.059h.874l-2.805,6.893Z" transform="translate(2326.882 1241.599)" fill="#fff"/>
        <path id="Path_27" data-name="Path 27" d="M-2232.24-1231.738a3.328,3.328,0,0,1-1.381-.283,3.377,3.377,0,0,1-1.092-.779,3.615,3.615,0,0,1-.721-1.146,3.733,3.733,0,0,1-.258-1.389,3.638,3.638,0,0,1,.258-1.369,3.5,3.5,0,0,1,.714-1.124,3.357,3.357,0,0,1,1.091-.766,3.276,3.276,0,0,1,1.377-.288,3.255,3.255,0,0,1,1.381.288,3.192,3.192,0,0,1,1.077.771,3.578,3.578,0,0,1,.7,1.124,3.678,3.678,0,0,1,.251,1.352v.211a.6.6,0,0,1-.013.146h-5.9a2.87,2.87,0,0,0,.258,1.022,2.737,2.737,0,0,0,.563.816,2.566,2.566,0,0,0,.784.536,2.4,2.4,0,0,0,.948.191,2.455,2.455,0,0,0,.662-.092,2.537,2.537,0,0,0,.608-.253,2.3,2.3,0,0,0,.5-.387,1.67,1.67,0,0,0,.343-.511l.784.211a2.318,2.318,0,0,1-.454.7,3.081,3.081,0,0,1-.672.541,3.242,3.242,0,0,1-.848.357A3.634,3.634,0,0,1-2232.24-1231.738Zm2.542-3.939a2.852,2.852,0,0,0-.26-1.015,2.738,2.738,0,0,0-.556-.786,2.361,2.361,0,0,0-.779-.516,2.433,2.433,0,0,0-.948-.186,2.457,2.457,0,0,0-.953.186,2.342,2.342,0,0,0-.786.516,2.562,2.562,0,0,0-.543.791,3.076,3.076,0,0,0-.244,1.009Z" transform="translate(2334.422 1241.528)" fill="#fff"/>
        <path id="Path_28" data-name="Path 28" d="M-2226.689-1238.016a2.836,2.836,0,0,0-1.59.5,2.528,2.528,0,0,0-.95,1.312v4.284h-.9v-6.893h.845v1.654a3.169,3.169,0,0,1,1.032-1.243,2.4,2.4,0,0,1,1.391-.451.8.8,0,0,1,.171.015Z" transform="translate(2342.657 1241.575)" fill="#fff"/>
        <path id="Path_29" data-name="Path 29" d="M-2218.511-1239.778h.873l1.324,3.336,1.337-3.336h.885l-1.639,4.01,1.8,4.246,3.4-8.319h1l-3.983,9.39h-.819l-1.969-4.643-1.987,4.643h-.806l-3.971-9.39h.992l3.416,8.319,1.783-4.246Z" transform="translate(2353.118 1240.108)" fill="#fff"/>
        <path id="Path_30" data-name="Path 30" d="M-2213.111-1231.738a2.455,2.455,0,0,1-.9-.164,2.288,2.288,0,0,1-.727-.456,2.123,2.123,0,0,1-.485-.68,2.062,2.062,0,0,1-.171-.841,1.7,1.7,0,0,1,.21-.833,2.076,2.076,0,0,1,.6-.663,3.058,3.058,0,0,1,.912-.431,4.208,4.208,0,0,1,1.164-.149,6.4,6.4,0,0,1,1.077.092,4.458,4.458,0,0,1,.964.265v-.625a1.981,1.981,0,0,0-.518-1.446,1.886,1.886,0,0,0-1.429-.538,2.968,2.968,0,0,0-1.084.214,5.22,5.22,0,0,0-1.125.608l-.318-.6a4.67,4.67,0,0,1,2.592-.9,2.788,2.788,0,0,1,2.042.729,2.691,2.691,0,0,1,.739,2.011v3.108c0,.248.109.369.33.369v.794a1.994,1.994,0,0,1-.342.04.78.78,0,0,1-.539-.171.631.631,0,0,1-.2-.476l-.03-.543a3.069,3.069,0,0,1-1.2.952A3.672,3.672,0,0,1-2213.111-1231.738Zm.214-.687a3.128,3.128,0,0,0,1.292-.266,2.114,2.114,0,0,0,.893-.7.778.778,0,0,0,.176-.26.644.644,0,0,0,.062-.256v-1.124a5.084,5.084,0,0,0-.935-.266,5.184,5.184,0,0,0-.987-.092,2.73,2.73,0,0,0-1.545.4,1.2,1.2,0,0,0-.6,1.044,1.393,1.393,0,0,0,.126.6,1.557,1.557,0,0,0,.34.483,1.653,1.653,0,0,0,.526.323A1.757,1.757,0,0,0-2212.9-1232.425Z" transform="translate(2364.465 1241.528)" fill="#fff"/>
        <path id="Path_31" data-name="Path 31" d="M-2209.222-1229.822c.069.007.137.015.2.02s.129.008.194.008a.907.907,0,0,0,.375-.067.725.725,0,0,0,.273-.29,4.83,4.83,0,0,0,.295-.652c.109-.28.271-.66.471-1.136l-3-6.893h.925l2.555,6.059,2.366-6.059h.864l-3.574,8.892a1.576,1.576,0,0,1-.484.667,1.368,1.368,0,0,1-.918.285c-.089,0-.17,0-.25-.007s-.179-.015-.291-.032Z" transform="translate(2371.84 1241.599)" fill="#fff"/>
        <path id="Path_32" data-name="Path 32" d="M-2204.874-1233.408v-6.471h.9v6.471Zm0,3.016v-1.481h.9v1.481Z" transform="translate(2380.044 1240.05)" fill="#fff"/>
      </g>
      <g id="Group_12" data-name="Group 12" transform="translate(290.429 11.33)">
        <path id="Path_33" data-name="Path 33" d="M-2173.733-1272.495a7.306,7.306,0,0,1-7.3-7.3,7.306,7.306,0,0,1,7.3-7.3,7.306,7.306,0,0,1,7.3,7.3A7.306,7.306,0,0,1-2173.733-1272.495Zm0-13.029a5.738,5.738,0,0,0-5.732,5.732,5.737,5.737,0,0,0,5.732,5.732,5.738,5.738,0,0,0,5.734-5.732A5.738,5.738,0,0,0-2173.733-1285.524Z" transform="translate(2181.03 1287.089)" fill="#fff"/>
      </g>
      <g id="Group_13" data-name="Group 13" transform="translate(295.233 14.817)">
        <path id="Path_34" data-name="Path 34" d="M-2179.094-1278.468v-7.215h3.141a1.974,1.974,0,0,1,.9.206,2.325,2.325,0,0,1,.709.531,2.61,2.61,0,0,1,.461.754,2.267,2.267,0,0,1,.168.858,2.411,2.411,0,0,1-.1.7,2.427,2.427,0,0,1-.288.62,1.873,1.873,0,0,1-.446.493,1.827,1.827,0,0,1-.578.31l1.7,2.743h-1.288l-1.567-2.51h-1.665v2.51Zm1.141-3.515h1.992a.926.926,0,0,0,.439-.107,1.026,1.026,0,0,0,.343-.3,1.524,1.524,0,0,0,.223-.431,1.628,1.628,0,0,0,.082-.518,1.445,1.445,0,0,0-.1-.518,1.526,1.526,0,0,0-.255-.427,1.2,1.2,0,0,0-.365-.29.933.933,0,0,0-.432-.1h-1.93Z" transform="translate(2179.094 1285.683)" fill="#fff"/>
      </g>
    </g>
  </g>
</svg>
